<svg width="800" height="600" xmlns="http://www.w3.org/2000/svg">
  <defs>
    <linearGradient id="grad1" x1="0%" y1="0%" x2="100%" y2="100%">
      <stop offset="0%" style="stop-color:#006AFF;stop-opacity:1" />
      <stop offset="100%" style="stop-color:#0049B0;stop-opacity:1" />
    </linearGradient>
  </defs>
  
  <!-- Background -->
  <rect width="800" height="600" fill="url(#grad1)"/>
  
  <!-- Building icon -->
  <g transform="translate(300, 180)">
    <!-- Main building -->
    <rect x="0" y="80" width="80" height="140" fill="white" opacity="0.9"/>
    <rect x="100" y="40" width="100" height="180" fill="white" opacity="0.95"/>
    
    <!-- Windows -->
    <rect x="10" y="90" width="15" height="20" fill="#006AFF" opacity="0.6"/>
    <rect x="25" y="90" width="15" height="20" fill="#006AFF" opacity="0.6"/>
    <rect x="45" y="90" width="15" height="20" fill="#006AFF" opacity="0.6"/>
    
    <rect x="10" y="120" width="15" height="20" fill="#006AFF" opacity="0.6"/>
    <rect x="25" y="120" width="15" height="20" fill="#006AFF" opacity="0.6"/>
    <rect x="45" y="120" width="15" height="20" fill="#006AFF" opacity="0.6"/>
    
    <rect x="10" y="150" width="15" height="20" fill="#006AFF" opacity="0.6"/>
    <rect x="25" y="150" width="15" height="20" fill="#006AFF" opacity="0.6"/>
    <rect x="45" y="150" width="15" height="20" fill="#006AFF" opacity="0.6"/>
    
    <!-- Taller building windows -->
    <rect x="115" y="55" width="20" height="25" fill="#006AFF" opacity="0.6"/>
    <rect x="145" y="55" width="20" height="25" fill="#006AFF" opacity="0.6"/>
    <rect x="175" y="55" width="20" height="25" fill="#006AFF" opacity="0.6"/>
    
    <rect x="115" y="90" width="20" height="25" fill="#006AFF" opacity="0.6"/>
    <rect x="145" y="90" width="20" height="25" fill="#006AFF" opacity="0.6"/>
    <rect x="175" y="90" width="20" height="25" fill="#006AFF" opacity="0.6"/>
    
    <rect x="115" y="125" width="20" height="25" fill="#006AFF" opacity="0.6"/>
    <rect x="145" y="125" width="20" height="25" fill="#006AFF" opacity="0.6"/>
    <rect x="175" y="125" width="20" height="25" fill="#006AFF" opacity="0.6"/>
    
    <rect x="115" y="160" width="20" height="25" fill="#006AFF" opacity="0.6"/>
    <rect x="145" y="160" width="20" height="25" fill="#006AFF" opacity="0.6"/>
    <rect x="175" y="160" width="20" height="25" fill="#006AFF" opacity="0.6"/>
  </g>
  
  <!-- Text -->
  <text x="400" y="450" font-family="Arial, sans-serif" font-size="28" fill="white" text-anchor="middle" font-weight="bold">
    Propriété Diwaan
  </text>
  <text x="400" y="485" font-family="Arial, sans-serif" font-size="18" fill="white" text-anchor="middle" opacity="0.9">
    Dakar, Sénégal
  </text>
</svg>
